<svg viewbox="0 0 32 32" width="32" height="32" xmlns="http://www.w3.org/2000/svg"><path fill-rule="evenodd" d="M1.66669 15.9998C1.66669 8.08376 8.08394 1.6665 16 1.6665C23.9161 1.6665 30.3334 8.08376 30.3334 15.9998C30.3334 23.9159 23.9161 30.3332 16 30.3332C8.08394 30.3332 1.66669 23.9159 1.66669 15.9998ZM23.6077 11.5578C23.9527 11.1266 23.8828 10.4973 23.4515 10.1523C23.0202 9.80726 22.391 9.87718 22.0459 10.3084L13.9474 20.4316L9.47587 16.3327C9.06875 15.9595 8.43618 15.987 8.06299 16.3941C7.6898 16.8012 7.7173 17.4338 8.12442 17.807L13.3844 22.6286C13.5885 22.8157 13.8611 22.9098 14.1371 22.8885C14.4132 22.8672 14.668 22.7324 14.841 22.5162L23.6077 11.5578Z"></path></svg>