<svg viewbox="0 0 48 48" width="48" height="48" xmlns="http://www.w3.org/2000/svg"><path fill-rule="evenodd" d="M18.3708 5.75C20.8727 1.41666 27.1273 1.41667 29.6292 5.75L46.0837 34.25C48.5855 38.5833 45.4582 44 40.4545 44H7.54552C2.54182 44 -0.58549 38.5833 1.91636 34.25L18.3708 5.75ZM22.5 34.3999C22.5 35.2283 23.1716 35.8999 24 35.8999C24.8284 35.8999 25.5 35.2283 25.5 34.3999V32.7999C25.5 31.9715 24.8284 31.2999 24 31.2999C23.1716 31.2999 22.5 31.9715 22.5 32.7999V34.3999ZM22.5 26.9999C22.5 27.8283 23.1716 28.4999 24 28.4999C24.8284 28.4999 25.5 27.8283 25.5 26.9999V15C25.5 14.1716 24.8284 13.5 24 13.5C23.1716 13.5 22.5 14.1716 22.5 15V26.9999Z"></path></svg>