<svg viewbox="0 0 16 16" width="16" height="16" xmlns="http://www.w3.org/2000/svg"><path fill-rule="evenodd" d="M7.99999 0.75C5.95653 0.75 4.29999 2.40655 4.29999 4.45C4.29999 5.83824 5.06453 7.04791 6.19554 7.68092C5.18837 7.88756 4.20334 8.27849 3.34023 8.89083C1.95053 9.87676 0.90647 11.4171 0.595602 13.5999C0.441833 14.6796 1.34504 15.5 2.33334 15.5H13.6667C14.655 15.5 15.5582 14.6796 15.4044 13.5999C15.0935 11.4171 14.0495 9.87676 12.6598 8.89083C11.7967 8.27849 10.8116 7.88755 9.80445 7.68092C10.9354 7.0479 11.7 5.83824 11.7 4.45C11.7 2.40655 10.0434 0.75 7.99999 0.75ZM5.29999 4.45C5.29999 2.95883 6.50882 1.75 7.99999 1.75C9.49116 1.75 10.7 2.95883 10.7 4.45C10.7 5.94117 9.49116 7.15 7.99999 7.15C6.50882 7.15 5.29999 5.94117 5.29999 4.45ZM1.58561 13.7409C1.8583 11.8262 2.75614 10.5313 3.91885 9.70642C5.09338 8.87315 6.56768 8.5 8 8.5C9.43233 8.5 10.9066 8.87315 12.0812 9.70642C13.2439 10.5313 14.1417 11.8262 14.4144 13.7409C14.4683 14.1192 14.1511 14.5 13.6667 14.5H2.33334C1.84887 14.5 1.53173 14.1192 1.58561 13.7409Z"></path></svg>