<svg viewbox="0 0 12 12" width="12" height="12" xmlns="http://www.w3.org/2000/svg"><path fill-rule="evenodd" d="M0.1875 6C0.1875 2.78984 2.78984 0.1875 6 0.1875C9.21015 0.1875 11.8125 2.78984 11.8125 6C11.8125 9.21016 9.21015 11.8125 6 11.8125C2.78984 11.8125 0.1875 9.21016 0.1875 6ZM9.12435 3.46422C9.27039 3.22986 9.1988 2.92148 8.96445 2.77543C8.73009 2.62938 8.4217 2.70097 8.27565 2.93533L5.17542 7.91018L3.34765 6.14196C3.14918 5.94996 2.83264 5.9552 2.64064 6.15367C2.44864 6.35214 2.45388 6.66868 2.65235 6.86068L4.92485 9.05913C5.0334 9.16415 5.18361 9.21447 5.33351 9.19604C5.48342 9.17761 5.61696 9.0924 5.69685 8.96422L9.12435 3.46422Z"></path></svg>