<svg viewbox="0 0 32 32" width="32" height="32" xmlns="http://www.w3.org/2000/svg"><path fill-rule="evenodd" d="M12.2472 3.83317C13.9151 0.944279 18.0849 0.944284 19.7528 3.83317L30.7224 22.8332C32.3903 25.7221 30.3055 29.3332 26.9697 29.3332H5.03034C1.69454 29.3332 -0.390334 25.7221 1.27757 22.8332L12.2472 3.83317ZM18.0207 4.83317C17.1226 3.27762 14.8774 3.27762 13.9793 4.83317L3.00962 23.8332C2.11152 25.3887 3.23414 27.3332 5.03034 27.3332H26.9697C28.7659 27.3332 29.8885 25.3887 28.9904 23.8332L18.0207 4.83317ZM16 23.9332C15.4477 23.9332 15 23.4855 15 22.9332V21.8665C15 21.3142 15.4477 20.8665 16 20.8665C16.5523 20.8665 17 21.3142 17 21.8665V22.9332C17 23.4855 16.5523 23.9332 16 23.9332ZM16 18.9998C15.4477 18.9998 15 18.5521 15 17.9998V9.9999C15 9.44762 15.4477 8.9999 16 8.9999C16.5523 8.9999 17 9.44762 17 9.9999V17.9998C17 18.5521 16.5523 18.9998 16 18.9998Z"></path></svg>