<svg viewbox="0 0 16 16" width="16" height="16" xmlns="http://www.w3.org/2000/svg"><path fill-rule="evenodd" d="M5.54368 14.6512L15.2348 4.92476C15.7765 4.38336 15.8376 3.6771 15.6603 3.04357C15.4864 2.4224 15.0777 1.82191 14.5869 1.34726C14.0958 0.872313 13.4792 0.481399 12.8451 0.324165C12.1992 0.164003 11.4888 0.241825 10.9436 0.786436L1.46634 10.5512C1.40467 10.6147 1.36098 10.6935 1.33974 10.7794L0.494166 14.2009C0.299455 14.9888 0.997047 15.7084 1.79058 15.5383L5.29429 14.7872C5.38882 14.7669 5.47545 14.7197 5.54368 14.6512ZM10.1326 3.05785L11.6529 1.49151C11.8833 1.26303 12.1974 1.19385 12.6044 1.29477C13.0246 1.39897 13.4912 1.6788 13.8917 2.06609C14.2925 2.45368 14.5836 2.90691 14.6973 3.31313C14.8075 3.70686 14.7437 4.00185 14.528 4.21731L14.5272 4.21812L13.0249 5.72592L10.1326 3.05785ZM9.43593 3.77568L2.27809 11.1506L1.46496 14.4408C1.44753 14.5113 1.50996 14.5757 1.58098 14.5605L4.93985 13.8405L12.3186 6.43484L9.43593 3.77568Z"></path></svg>