<svg viewbox="0 0 48 48" width="48" height="48" xmlns="http://www.w3.org/2000/svg"><path fill-rule="evenodd" d="M24 5.5C13.7827 5.5 5.5 13.7827 5.5 24C5.5 34.2173 13.7827 42.5 24 42.5C34.2173 42.5 42.5 34.2173 42.5 24C42.5 13.7827 34.2173 5.5 24 5.5ZM2.5 24C2.5 12.1259 12.1259 2.5 24 2.5C35.8741 2.5 45.5 12.1259 45.5 24C45.5 35.8741 35.8741 45.5 24 45.5C12.1259 45.5 2.5 35.8741 2.5 24ZM12.125 24C12.125 22.9645 12.9645 22.125 14 22.125H36C37.0355 22.125 37.875 22.9645 37.875 24C37.875 25.0355 37.0355 25.875 36 25.875H14C12.9645 25.875 12.125 25.0355 12.125 24Z"></path></svg>