<svg viewbox="0 0 16 16" width="16" height="16" xmlns="http://www.w3.org/2000/svg"><path d="M1.27729 6.37494C3.13425 4.73809 5.52461 3.83496 8 3.83496C10.4754 3.83496 12.8658 4.73809 14.7227 6.37494C14.9299 6.55754 15.2458 6.53764 15.4284 6.33049C15.611 6.12333 15.5911 5.80738 15.384 5.62478C13.3444 3.82692 10.7189 2.83496 8 2.83496C5.28113 2.83496 2.65565 3.82692 0.616044 5.62478C0.408892 5.80738 0.388987 6.12333 0.571586 6.33049C0.754185 6.53764 1.07014 6.55754 1.27729 6.37494ZM3.65334 8.75074C4.8812 7.72802 6.42867 7.16797 8.02667 7.16797C9.62467 7.16797 11.1721 7.72802 12.4 8.75074C12.6122 8.92747 12.9275 8.89873 13.1042 8.68655C13.2809 8.47437 13.2522 8.1591 13.04 7.98237C11.6324 6.80998 9.85852 6.16797 8.02667 6.16797C6.19481 6.16797 4.42089 6.80998 3.01334 7.98237C2.80115 8.1591 2.77242 8.47437 2.94915 8.68655C3.12588 8.89873 3.44115 8.92747 3.65334 8.75074ZM8.00334 10.501C7.27689 10.501 6.56845 10.727 5.97625 11.1477C5.75114 11.3077 5.439 11.2548 5.27906 11.0297C5.11913 10.8046 5.17197 10.4925 5.39709 10.3325C6.15849 9.7916 7.06934 9.50098 8.00334 9.50098C8.93733 9.50098 9.84818 9.7916 10.6096 10.3325C10.8347 10.4925 10.8875 10.8046 10.7276 11.0297C10.5677 11.2548 10.2555 11.3077 10.0304 11.1477C9.43822 10.727 8.72978 10.501 8.00334 10.501ZM8 12.8335C7.72386 12.8335 7.5 13.0574 7.5 13.3335C7.5 13.6096 7.72386 13.8335 8 13.8335H8.00733C8.28347 13.8335 8.50733 13.6096 8.50733 13.3335C8.50733 13.0574 8.28347 12.8335 8.00733 12.8335H8Z"></path></svg>