<svg viewbox="0 0 32 32" width="32" height="32" xmlns="http://www.w3.org/2000/svg"><path fill-rule="evenodd" d="M12.2472 3.83317C13.9151 0.944279 18.0849 0.944284 19.7528 3.83317L30.7224 22.8332C32.3903 25.7221 30.3055 29.3332 26.9697 29.3332H5.03035C1.69454 29.3332 -0.390327 25.7221 1.27757 22.8332L12.2472 3.83317ZM15 22.9331C15 23.4854 15.4477 23.9331 16 23.9331C16.5523 23.9331 17 23.4854 17 22.9331V21.8664C17 21.3142 16.5523 20.8664 16 20.8664C15.4477 20.8664 15 21.3142 15 21.8664V22.9331ZM15 17.9998C15 18.5521 15.4477 18.9998 16 18.9998C16.5523 18.9998 17 18.5521 17 17.9998V9.99984C17 9.44755 16.5523 8.99984 16 8.99984C15.4477 8.99984 15 9.44755 15 9.99984V17.9998Z"></path></svg>