<svg viewbox="0 0 24 24" width="24" height="24" xmlns="http://www.w3.org/2000/svg"><path fill-rule="evenodd" d="M22.153 7.42787L22.1554 7.42549C22.9195 6.64616 23.0018 5.63524 22.7542 4.73441C22.5108 3.84904 21.9391 2.99394 21.253 2.31818C20.567 1.64258 19.7022 1.08278 18.8077 0.856896C17.8932 0.625942 16.8813 0.738397 16.1072 1.52593L16.096 1.5376L2.78335 15.6806C2.69425 15.7753 2.63128 15.8915 2.60062 16.0178L1.39921 20.9685C1.13399 22.0614 2.10458 23.0547 3.20334 22.8148L8.16001 21.7327C8.30461 21.7012 8.43664 21.6275 8.53947 21.5211L22.153 7.42787ZM18.4405 2.31124C17.8944 2.17335 17.4844 2.26815 17.182 2.57231L15.3487 4.51993L19.2667 8.25694L21.0832 6.37641C21.3687 6.08595 21.4592 5.68273 21.3078 5.13196C21.1519 4.5648 20.752 3.93015 20.2004 3.38688C19.6487 2.84346 19.0096 2.45496 18.4405 2.31124ZM18.2245 9.33582L7.61831 20.3157L2.88341 21.3494C2.87804 21.3505 2.87468 21.3504 2.87468 21.3504L2.87278 21.3501C2.87278 21.3501 2.86714 21.3477 2.86264 21.3431C2.85813 21.3385 2.85594 21.3328 2.85594 21.3328L2.85565 21.3309C2.85565 21.3309 2.8556 21.3276 2.8569 21.3222L4.01154 16.5643L14.3206 5.6122L18.2245 9.33582Z"></path></svg>