<svg viewbox="0 0 48 48" width="48" height="48" xmlns="http://www.w3.org/2000/svg"><path fill-rule="evenodd" d="M18.3708 5.75C20.8727 1.41666 27.1273 1.41667 29.6292 5.75L46.0837 34.25C48.5855 38.5833 45.4582 44 40.4545 44H7.54552C2.54182 44 -0.58549 38.5833 1.91636 34.25L18.3708 5.75ZM27.0311 7.25C25.6839 4.91667 22.3161 4.91667 20.9689 7.25L4.51444 35.75C3.16728 38.0833 4.85122 41 7.54552 41H40.4545C43.1488 41 44.8327 38.0833 43.4856 35.75L27.0311 7.25ZM24 35.9C23.1716 35.9 22.5 35.2284 22.5 34.4V32.8C22.5 31.9716 23.1716 31.3 24 31.3C24.8284 31.3 25.5 31.9716 25.5 32.8V34.4C25.5 35.2284 24.8284 35.9 24 35.9ZM24 28.5C23.1716 28.5 22.5 27.8284 22.5 27V15.0001C22.5 14.1717 23.1716 13.5001 24 13.5001C24.8284 13.5001 25.5 14.1717 25.5 15.0001V27C25.5 27.8284 24.8284 28.5 24 28.5Z"></path></svg>