<svg viewbox="0 0 32 32" width="32" height="32" xmlns="http://www.w3.org/2000/svg"><path fill-rule="evenodd" d="M8.5 14.75C7.80964 14.75 7.25 15.3096 7.25 16C7.25 16.6904 7.80964 17.25 8.5 17.25H23.5C24.1904 17.25 24.75 16.6904 24.75 16C24.75 15.3096 24.1904 14.75 23.5 14.75H8.5ZM16 1.66675C8.08392 1.66675 1.66667 8.084 1.66667 16.0001C1.66667 23.9162 8.08392 30.3334 16 30.3334C23.9161 30.3334 30.3333 23.9162 30.3333 16.0001C30.3333 8.084 23.9161 1.66675 16 1.66675ZM3.66667 16.0001C3.66667 9.18857 9.18849 3.66675 16 3.66675C22.8115 3.66675 28.3333 9.18857 28.3333 16.0001C28.3333 22.8116 22.8115 28.3334 16 28.3334C9.18849 28.3334 3.66667 22.8116 3.66667 16.0001Z"></path></svg>