<svg viewbox="0 0 24 24" width="24" height="24" xmlns="http://www.w3.org/2000/svg"><path fill-rule="evenodd" d="M12 0.75C8.99004 0.75 6.54999 3.19005 6.54999 6.2C6.54999 8.27943 7.71457 10.0869 9.42709 11.0057C7.85248 11.3251 6.3098 11.9554 4.96732 12.9608C2.87796 14.5257 1.3246 16.9626 0.879844 20.4071C0.671895 22.0176 2.01278 23.25 3.50003 23.25H20.5C21.9873 23.25 23.3282 22.0176 23.1202 20.4071C22.6755 16.9626 21.1221 14.5257 19.0327 12.9608C17.6902 11.9554 16.1475 11.3251 14.5729 11.0056C16.2854 10.0868 17.45 8.27942 17.45 6.2C17.45 3.19005 15.0099 0.75 12 0.75ZM8.04999 6.2C8.04999 4.01848 9.81846 2.25 12 2.25C14.1815 2.25 15.95 4.01848 15.95 6.2C15.95 8.38152 14.1815 10.15 12 10.15C9.81846 10.15 8.04999 8.38152 8.04999 6.2ZM2.36749 20.5992C2.76304 17.5359 4.11781 15.4712 5.86653 14.1614C7.63128 12.8397 9.84849 12.25 12 12.25C14.1516 12.25 16.3688 12.8397 18.1335 14.1614C19.8822 15.4712 21.237 17.5359 21.6326 20.5992C21.7075 21.1797 21.2219 21.75 20.5 21.75H3.50003C2.77814 21.75 2.29254 21.1797 2.36749 20.5992Z"></path></svg>