<svg viewbox="0 0 32 32" width="32" height="32" xmlns="http://www.w3.org/2000/svg"><path fill-rule="evenodd" d="M16 3.66675C9.18849 3.66675 3.66666 9.18857 3.66666 16.0001C3.66666 22.8116 9.18849 28.3334 16 28.3334C22.8115 28.3334 28.3333 22.8116 28.3333 16.0001C28.3333 9.18857 22.8115 3.66675 16 3.66675ZM1.66666 16.0001C1.66666 8.084 8.08392 1.66675 16 1.66675C23.9161 1.66675 30.3333 8.084 30.3333 16.0001C30.3333 23.9162 23.9161 30.3334 16 30.3334C8.08392 30.3334 1.66666 23.9162 1.66666 16.0001ZM16 8.33341C16.5523 8.33341 17 8.78113 17 9.33341V10.4001C17 10.9524 16.5523 11.4001 16 11.4001C15.4477 11.4001 15 10.9524 15 10.4001V9.33341C15 8.78113 15.4477 8.33341 16 8.33341ZM16 13.2667C16.5523 13.2667 17 13.7145 17 14.2667V22.9334C17 23.4857 16.5523 23.9334 16 23.9334C15.4477 23.9334 15 23.4857 15 22.9334V14.2667C15 13.7145 15.4477 13.2667 16 13.2667Z"></path></svg>