<svg viewbox="0 0 32 32" width="32" height="32" xmlns="http://www.w3.org/2000/svg"><path fill-rule="evenodd" d="M16 3.66663C9.18848 3.66663 3.66666 9.18845 3.66666 16C3.66666 22.8115 9.18848 28.3333 16 28.3333C22.8115 28.3333 28.3333 22.8115 28.3333 16C28.3333 9.18845 22.8115 3.66663 16 3.66663ZM1.66666 16C1.66666 8.08388 8.08392 1.66663 16 1.66663C23.9161 1.66663 30.3333 8.08388 30.3333 16C30.3333 23.916 23.9161 30.3333 16 30.3333C8.08392 30.3333 1.66666 23.916 1.66666 16ZM23.4515 10.1524C23.8828 10.4974 23.9527 11.1267 23.6077 11.558L14.841 22.5163C14.668 22.7325 14.4132 22.8673 14.1371 22.8887C13.861 22.91 13.5885 22.8159 13.3844 22.6288L8.1244 17.8071C7.71728 17.4339 7.68978 16.8014 8.06297 16.3942C8.43617 15.9871 9.06873 15.9596 9.47585 16.3328L13.9474 20.4317L22.0459 10.3086C22.3909 9.87734 23.0202 9.80741 23.4515 10.1524Z"></path></svg>