<svg viewbox="0 0 48 48" width="48" height="48" xmlns="http://www.w3.org/2000/svg"><path fill-rule="evenodd" d="M2.5 23.9998C2.5 12.1256 12.1259 2.49976 24 2.49976C35.8741 2.49976 45.5 12.1256 45.5 23.9998C45.5 35.8739 35.8741 45.4998 24 45.4998C12.1259 45.4998 2.5 35.8739 2.5 23.9998ZM25.5 14.0002C25.5 13.1718 24.8284 12.5002 24 12.5002C23.1716 12.5002 22.5 13.1718 22.5 14.0002V15.6002C22.5 16.4287 23.1716 17.1002 24 17.1002C24.8284 17.1002 25.5 16.4287 25.5 15.6002V14.0002ZM25.5 21.4002C25.5 20.5718 24.8284 19.9002 24 19.9002C23.1716 19.9002 22.5 20.5718 22.5 21.4002V34.4002C22.5 35.2287 23.1716 35.9002 24 35.9002C24.8284 35.9002 25.5 35.2287 25.5 34.4002V21.4002Z"></path></svg>