<svg viewbox="0 0 32 32" width="32" height="32" xmlns="http://www.w3.org/2000/svg"><path d="M2.55458 12.7504C6.26849 9.47667 11.0492 7.67041 16 7.67041C20.9508 7.67041 25.7315 9.47667 29.4454 12.7504C29.8597 13.1156 30.4916 13.0758 30.8568 12.6615C31.222 12.2472 31.1822 11.6152 30.7679 11.25C26.6887 7.65433 21.4377 5.67041 16 5.67041C10.5622 5.67041 5.3113 7.65433 1.23208 11.25C0.817775 11.6152 0.777966 12.2472 1.14316 12.6615C1.50836 13.0758 2.14028 13.1156 2.55458 12.7504ZM7.30667 17.5015C9.7624 15.456 12.8573 14.3359 16.0533 14.3359C19.2493 14.3359 22.3443 15.456 24.8 17.5015C25.2244 17.8549 25.8549 17.7975 26.2084 17.3731C26.5618 16.9487 26.5044 16.3182 26.08 15.9647C23.2649 13.62 19.717 12.3359 16.0533 12.3359C12.3896 12.3359 8.84177 13.62 6.02667 15.9647C5.6023 16.3182 5.54483 16.9487 5.89829 17.3731C6.25175 17.7975 6.8823 17.8549 7.30667 17.5015ZM16.0067 21.0015C14.5538 21.0015 13.1369 21.4535 11.9525 22.295C11.5023 22.6149 10.878 22.5092 10.5581 22.059C10.2383 21.6087 10.3439 20.9844 10.7942 20.6646C12.317 19.5827 14.1387 19.0015 16.0067 19.0015C17.8747 19.0015 19.6964 19.5827 21.2192 20.6646C21.6694 20.9844 21.7751 21.6087 21.4552 22.059C21.1353 22.5092 20.5111 22.6149 20.0608 22.295C18.8764 21.4535 17.4595 21.0015 16.0067 21.0015ZM16 25.6665C15.4477 25.6665 15 26.1142 15 26.6665C15 27.2188 15.4477 27.6665 16 27.6665H16.0122C16.5645 27.6665 17.0122 27.2188 17.0122 26.6665C17.0122 26.1142 16.5645 25.6665 16.0122 25.6665H16Z"></path></svg>