<svg viewbox="0 0 48 48" width="48" height="48" xmlns="http://www.w3.org/2000/svg"><path fill-rule="evenodd" d="M24 5.5C13.7827 5.5 5.5 13.7827 5.5 24C5.5 34.2173 13.7827 42.5 24 42.5C34.2173 42.5 42.5 34.2173 42.5 24C42.5 13.7827 34.2173 5.5 24 5.5ZM2.5 24C2.5 12.1259 12.1259 2.5 24 2.5C35.8741 2.5 45.5 12.1259 45.5 24C45.5 35.8741 35.8741 45.5 24 45.5C12.1259 45.5 2.5 35.8741 2.5 24ZM24 12.5C24.8284 12.5 25.5 13.1716 25.5 14V15.6C25.5 16.4284 24.8284 17.1 24 17.1C23.1716 17.1 22.5 16.4284 22.5 15.6V14C22.5 13.1716 23.1716 12.5 24 12.5ZM24 19.9C24.8284 19.9 25.5 20.5716 25.5 21.4V34.4C25.5 35.2284 24.8284 35.9 24 35.9C23.1716 35.9 22.5 35.2284 22.5 34.4V21.4C22.5 20.5716 23.1716 19.9 24 19.9Z"></path></svg>