<svg viewbox="0 0 48 48" width="48" height="48" xmlns="http://www.w3.org/2000/svg"><path fill-rule="evenodd" d="M2.50003 23.9998C2.50003 12.1256 12.1259 2.49976 24 2.49976C35.8742 2.49976 45.5 12.1256 45.5 23.9998C45.5 35.8739 35.8742 45.4998 24 45.4998C12.1259 45.4998 2.50003 35.8739 2.50003 23.9998ZM35.4115 17.3368C35.929 16.6899 35.8242 15.7459 35.1773 15.2284C34.5304 14.7109 33.5864 14.8158 33.0689 15.4627L20.9212 30.6474L14.2138 24.499C13.6031 23.9392 12.6543 23.9804 12.0945 24.5911C11.5347 25.2018 11.576 26.1507 12.1866 26.7104L20.0766 33.9429C20.3828 34.2236 20.7916 34.3647 21.2057 34.3328C21.6198 34.3008 22.0021 34.0986 22.2615 33.7743L35.4115 17.3368Z"></path></svg>