<svg viewbox="0 0 32 32" width="32" height="32" xmlns="http://www.w3.org/2000/svg"><path fill-rule="evenodd" d="M1.66666 15.9998C1.66666 8.08376 8.08391 1.6665 16 1.6665C23.9161 1.6665 30.3333 8.08376 30.3333 15.9998C30.3333 23.9159 23.9161 30.3332 16 30.3332C8.08391 30.3332 1.66666 23.9159 1.66666 15.9998ZM17 9.3335C17 8.78121 16.5523 8.3335 16 8.3335C15.4477 8.3335 15 8.78121 15 9.3335V10.4002C15 10.9524 15.4477 11.4002 16 11.4002C16.5523 11.4002 17 10.9524 17 10.4002V9.3335ZM17 14.2668C17 13.7145 16.5523 13.2668 16 13.2668C15.4477 13.2668 15 13.7145 15 14.2668V22.9335C15 23.4858 15.4477 23.9335 16 23.9335C16.5523 23.9335 17 23.4858 17 22.9335V14.2668Z"></path></svg>