<svg viewbox="0 0 48 48" width="48" height="48" xmlns="http://www.w3.org/2000/svg"><path fill-rule="evenodd" d="M24 5.5C13.7827 5.5 5.5 13.7827 5.5 24C5.5 34.2173 13.7827 42.5 24 42.5C34.2173 42.5 42.5 34.2173 42.5 24C42.5 13.7827 34.2173 5.5 24 5.5ZM2.5 24C2.5 12.1259 12.1259 2.5 24 2.5C35.8741 2.5 45.5 12.1259 45.5 24C45.5 35.8741 35.8741 45.5 24 45.5C12.1259 45.5 2.5 35.8741 2.5 24ZM35.1772 15.2287C35.8241 15.7462 35.929 16.6901 35.4115 17.337L22.2615 33.7745C22.0021 34.0989 21.6198 34.3011 21.2057 34.333C20.7916 34.365 20.3828 34.2239 20.0766 33.9432L12.1866 26.7107C11.5759 26.1509 11.5347 25.2021 12.0945 24.5914C12.6543 23.9807 13.6031 23.9395 14.2138 24.4993L20.9211 30.6477L33.0689 15.463C33.5864 14.8161 34.5303 14.7112 35.1772 15.2287Z"></path></svg>